<svg width="512" height="512" viewBox="0 0 512 512" fill="none" xmlns="http://www.w3.org/2000/svg">
<path d="M256 496C388.548 496 496 388.548 496 256C496 123.452 388.548 16 256 16C123.452 16 16 123.452 16 256C16 388.548 123.452 496 256 496Z" fill="url(#paint0_linear_802_2)"/>
<path d="M256 461C369.218 461 461 369.218 461 256C461 142.782 369.218 51 256 51C142.782 51 51 142.782 51 256C51 369.218 142.782 461 256 461Z" fill="#22202E"/>
<g clip-path="url(#clip0_802_2)">
<path d="M367.021 349.212C380.009 336.201 380.009 315.133 367.021 302.123L355.168 290.335L229.758 164.859L229.49 164.591C229.425 164.526 229.357 164.526 229.357 164.458C229.157 164.325 228.959 164.125 228.759 163.992C228.691 163.992 228.691 163.925 228.626 163.925C228.426 163.792 228.293 163.727 228.092 163.592C228.025 163.527 227.96 163.527 227.892 163.459C227.692 163.394 227.559 163.326 227.359 163.259C227.294 163.259 227.294 163.194 227.226 163.194L143.509 135.354C141.126 134.537 138.485 135.159 136.716 136.951C135.472 138.213 134.778 139.912 134.783 141.681C134.796 142.404 134.908 143.12 135.116 143.812L163.024 227.464C163.024 227.529 163.024 227.529 163.089 227.597C163.151 227.807 163.239 228.01 163.357 228.195C163.362 228.247 163.385 228.294 163.422 228.33C163.554 228.528 163.69 228.796 163.822 228.996C163.955 229.194 164.155 229.394 164.288 229.595C164.356 229.662 164.356 229.727 164.421 229.727C164.488 229.795 164.553 229.928 164.689 229.995L301.952 367.259C314.963 380.246 336.031 380.246 349.039 367.259L367.021 349.212ZM178.675 225.333L225.028 178.978L341.047 294.997L294.694 341.352L178.675 225.333ZM212.707 172.45L172.212 212.944L151.967 152.137L212.707 172.45ZM311.277 357.87L304.151 350.809L350.506 304.454L357.632 311.582C365.424 319.382 365.424 332.02 357.632 339.82L339.517 357.935C331.684 365.675 319.074 365.646 311.277 357.87Z" fill="url(#paint1_linear_802_2)"/>
</g>
<defs>
<linearGradient id="paint0_linear_802_2" x1="256" y1="16" x2="256" y2="496" gradientUnits="userSpaceOnUse">
<stop stop-color="#FF0000"/>
<stop offset="1" stop-color="#FF7A00"/>
</linearGradient>
<linearGradient id="paint1_linear_802_2" x1="121.397" y1="256.003" x2="418.625" y2="256.003" gradientUnits="userSpaceOnUse">
<stop offset="0.322" stop-color="#F56363"/>
</linearGradient>
<clipPath id="clip0_802_2">
<rect width="242" height="242" fill="white" transform="translate(377 135) rotate(90)"/>
</clipPath>
</defs>
</svg>
